<?xml version="1.0" encoding="UTF-8"?>
<svg version="1.1" xmlns="http://www.w3.org/2000/svg" width="512" height="512">
<path d="M0 0 C1.01790619 0.00215515 2.03581238 0.0043103 3.08456421 0.00653076 C17.69363523 0.05620146 32.02575853 0.30709809 46.375 3.3125 C47.34985352 3.51117676 48.32470703 3.70985352 49.32910156 3.91455078 C97.7109774 14.03517194 141.69928269 35.9516877 177.375 70.3125 C178.3640332 71.26068604 178.3640332 71.26068604 179.37304688 72.22802734 C188.86130305 81.37247479 197.6012044 90.66984009 205.375 101.3125 C206.23306152 102.46355017 207.09113451 103.61459177 207.94921875 104.765625 C213.98736829 112.95680614 219.34595521 121.47054105 224.375 130.3125 C224.73948242 130.94430176 225.10396484 131.57610352 225.47949219 132.22705078 C247.08534998 169.97532572 256.85198095 212.74189997 256.6875 255.9375 C256.68534485 256.95540619 256.6831897 257.97331238 256.68096924 259.02206421 C256.63129854 273.63113523 256.38040191 287.96325853 253.375 302.3125 C253.07698486 303.77478027 253.07698486 303.77478027 252.77294922 305.26660156 C242.65232806 353.6484774 220.7358123 397.63678269 186.375 433.3125 C185.74287598 433.97185547 185.11075195 434.63121094 184.45947266 435.31054688 C175.31502521 444.79880305 166.01765991 453.5387044 155.375 461.3125 C154.22394983 462.17056152 153.07290823 463.02863451 151.921875 463.88671875 C143.73224019 469.92427396 135.22961724 475.30707302 126.375 480.3125 C125.66778809 480.7146875 124.96057617 481.116875 124.23193359 481.53125 C101.09654164 494.5566741 75.92537591 503.30551461 49.9375 508.625 C49.21860596 508.77235596 48.49971191 508.91971191 47.7590332 509.0715332 C33.08339502 511.86090125 18.55831162 512.66142619 3.64770508 512.62817383 C0.70811513 512.6250221 -2.2304558 512.64854926 -5.16992188 512.67382812 C-18.54306192 512.71848737 -31.43916711 511.51301542 -44.625 509.3125 C-46.33055054 509.03031616 -46.33055054 509.03031616 -48.07055664 508.74243164 C-91.33802759 500.97044532 -132.38793216 480.98345309 -165.625 452.3125 C-166.37007813 451.67828125 -167.11515625 451.0440625 -167.8828125 450.390625 C-181.38779833 438.57948485 -194.05918743 425.82889772 -204.625 411.3125 C-205.48149066 410.16255169 -206.33826433 409.01281411 -207.1953125 407.86328125 C-213.23534209 399.67315742 -218.61867614 391.16870382 -223.625 382.3125 C-224.0271875 381.60528809 -224.429375 380.89807617 -224.84375 380.16943359 C-237.8691741 357.03404164 -246.61801461 331.86287591 -251.9375 305.875 C-252.08485596 305.15610596 -252.23221191 304.43721191 -252.3840332 303.6965332 C-255.35789088 288.05024391 -255.99800362 272.57681954 -255.9375 256.6875 C-255.93534485 255.66959381 -255.9331897 254.65168762 -255.93096924 253.60293579 C-255.88129854 238.99386477 -255.63040191 224.66174147 -252.625 210.3125 C-252.42632324 209.33764648 -252.22764648 208.36279297 -252.02294922 207.35839844 C-241.90232806 158.9765226 -219.9858123 114.98821731 -185.625 79.3125 C-184.99287598 78.65314453 -184.36075195 77.99378906 -183.70947266 77.31445312 C-174.56502521 67.82619695 -165.26765991 59.0862956 -154.625 51.3125 C-153.47394983 50.45443848 -152.32290823 49.59636549 -151.171875 48.73828125 C-142.98224019 42.70072604 -134.47961724 37.31792698 -125.625 32.3125 C-124.91778809 31.9103125 -124.21057617 31.508125 -123.48193359 31.09375 C-100.34654164 18.0683259 -75.17537591 9.31948539 -49.1875 4 C-48.46860596 3.85264404 -47.74971191 3.70528809 -47.0090332 3.5534668 C-31.36274391 0.57960912 -15.88931954 -0.06050362 0 0 Z " fill="#7783ED" transform="translate(255.625,-0.3125)"/>
<path d="M0 0 C0.99 0.495 0.99 0.495 2 1 C5.75603944 12.26811832 2.47282792 24.98185318 -2.0625 35.453125 C-8.92349062 49.07981471 -21.17908673 58.26432099 -35 64 C-37.65380787 64.75720061 -40.30764532 65.38493622 -43 66 C-41.58764214 85.67560605 -36.17737182 101.8620239 -21.55859375 115.83984375 C-2.86361098 131.62354676 23.0549945 137.45499165 47 136 C57.34947591 135.04653773 67.65236162 133.66404259 77.9508667 132.27532959 C79.90443255 132.01284082 81.85869524 131.75555385 83.81298828 131.49853516 C97.64455127 129.67256782 111.36010456 127.5058002 125.03881836 124.75024414 C141.24226801 121.487316 157.08686248 119.81286345 173.60766602 119.81469727 C175.79918948 119.81251326 177.99020565 119.79428442 180.18164062 119.77539062 C200.06833834 119.69431669 221.04663011 121.88160343 236.2421875 136.09765625 C245.13203502 145.60811576 250.61353132 155.30894252 250.3671875 168.43359375 C249.08443335 180.89268461 238.58710632 190.24403433 229.54296875 198.01171875 C213.64920249 210.43864199 194.9916535 219.11382087 176.20996094 226.16552734 C174.3007559 226.88643574 172.40306514 227.63770218 170.5078125 228.39453125 C159.02824723 232.81514624 147.01653598 235.48214828 135 238 C133.99437012 238.21076172 132.98874023 238.42152344 131.95263672 238.63867188 C120.27250954 240.96744376 108.7722476 242.09251084 96.8828125 242.2890625 C95.89861328 242.30541245 94.91441406 242.32176239 93.90039062 242.33860779 C88.97387759 242.40898869 84.05094655 242.4371453 79.12402344 242.40942383 C67.19649858 242.41921218 57.24174223 244.05692728 46 248 C30.05060355 252.61200025 12.42587066 247.44159544 -1.6875 240 C-8.22156337 236.05490513 -14.54052869 231.91894263 -18 225 C-13.05 223.02 -8.1 221.04 -3 219 C-3 218.34 -3 217.68 -3 217 C-4.68006144 215.49457477 -4.68006144 215.49457477 -6.875 213.9375 C-12.19686375 209.91263135 -17.11536455 205.54099276 -22 201 C-22.59425781 200.45988281 -23.18851563 199.91976562 -23.80078125 199.36328125 C-43.73175678 180.47880086 -57.52714433 154.4684491 -67 129 C-67.43054688 127.87980469 -67.86109375 126.75960937 -68.3046875 125.60546875 C-72.29700096 114.55841504 -74.3608151 103.14683855 -76.50683594 91.62451172 C-76.98518464 89.0788441 -77.48705631 86.53889911 -78 84 C-79.25683594 84.15855469 -80.51367188 84.31710938 -81.80859375 84.48046875 C-105.94340633 87.13487381 -128.52940453 84.02410252 -147.9375 68.5625 C-152.81966544 64.30170107 -157.78015993 59.92835642 -162 55 C-162 54.34 -162 53.68 -162 53 C-161.34741211 52.89042969 -160.69482422 52.78085938 -160.02246094 52.66796875 C-144.77404223 50.04022024 -131.16213793 46.16521031 -117 40 C-100.29583438 32.91158929 -86.33144304 35.5820294 -70 42 C-69.74347656 41.28585938 -69.48695313 40.57171875 -69.22265625 39.8359375 C-64.25784237 28.32010721 -54.94691127 20.37563837 -43.8203125 15.1015625 C-39.46235164 13.39942266 -34.96846901 12.36619802 -30.43359375 11.23828125 C-24.94588995 9.783663 -19.64020598 7.82468212 -14.3125 5.875 C-13.35569336 5.52590576 -12.39888672 5.17681152 -11.41308594 4.81713867 C-6.52218339 3.04861876 -6.52218339 3.04861876 -1.83276367 0.82470703 C-1.22795166 0.55255371 -0.62313965 0.28040039 0 0 Z " fill="#6CB0F7" transform="translate(211,131)"/>
<path d="M0 0 C8.44216012 7.05278089 16.22472718 14.7893321 24.05509186 22.50665092 C26.52939417 24.94501596 29.01186117 27.37360291 31.515625 29.78173828 C34.42119186 32.57674584 37.28927097 35.40760603 40.15625 38.2421875 C41.05815063 39.10077362 41.96005127 39.95935974 42.88928223 40.84396362 C48.7986801 46.77176018 48.7986801 46.77176018 49.36523438 50.22827148 C49.13476562 52.33154297 49.13476562 52.33154297 48 56 C47.79761719 56.80083008 47.59523438 57.60166016 47.38671875 58.42675781 C47.15597656 59.09545898 46.92523438 59.76416016 46.6875 60.453125 C46.42163086 61.2265625 46.15576172 62 45.88183594 62.796875 C45.59083008 63.60640625 45.29982422 64.4159375 45 65.25 C44.69094727 66.11625 44.38189453 66.9825 44.06347656 67.875 C31.75546198 101.63970204 12.92619602 132.11993887 -12 158 C-12.63212402 158.65935547 -13.26424805 159.31871094 -13.91552734 159.99804688 C-23.05997479 169.48630305 -32.35734009 178.2262044 -43 186 C-44.15105017 186.85806152 -45.30209177 187.71613451 -46.453125 188.57421875 C-54.64275981 194.61177396 -63.14538276 199.99457302 -72 205 C-73.06081787 205.60328125 -73.06081787 205.60328125 -74.14306641 206.21875 C-86.90641595 213.40462526 -100.1438177 219.23921775 -114 224 C-115.06605469 224.41121094 -116.13210938 224.82242188 -117.23046875 225.24609375 C-120 225 -120 225 -121.38339901 223.64882946 C-122.14868341 222.70216396 -122.14868341 222.70216396 -122.9294281 221.7363739 C-125.95549092 218.15327337 -129.12369513 214.76057436 -132.43299866 211.4400177 C-133.18857443 210.68145574 -133.18857443 210.68145574 -133.95941436 209.90756929 C-135.60393707 208.26044356 -137.25127866 206.61616841 -138.89868164 204.97192383 C-140.09214069 203.77710746 -141.28538739 202.58207896 -142.47843933 201.38685608 C-145.69913787 198.16162362 -148.9229614 194.93953227 -152.14751744 191.71815705 C-155.5307917 188.33742618 -158.91161225 184.95424292 -162.29283142 181.57145691 C-167.96759431 175.89487859 -173.64445372 170.22040331 -179.32250977 164.54711914 C-185.87901237 157.99606319 -192.43189779 151.44140562 -198.98292643 144.88487607 C-204.61948744 139.24377235 -210.25800075 133.60462559 -215.89814085 127.96710032 C-219.2616871 124.60510978 -222.62456188 121.24245507 -225.9856739 117.87803078 C-229.14433322 114.71647575 -232.30544236 111.55739054 -235.46843147 108.40016747 C-236.62621527 107.24370192 -237.78315636 106.08639199 -238.93917465 104.92816162 C-240.52180187 103.34278618 -242.10750272 101.76054776 -243.69398499 100.17903137 C-245.02155618 98.85202571 -245.02155618 98.85202571 -246.375947 97.49821186 C-249.15534731 94.85210265 -252.02710485 92.42467619 -255 90 C-251.04046939 90 -249.52409399 91.48440939 -246.25 93.6875 C-232.33932902 102.68676292 -215.20573967 106.34875775 -198.79394531 103.63525391 C-193.54825375 102.48676722 -188.39488034 100.96835483 -183.41455078 98.95458984 C-178.9363752 97.70264744 -174.76114648 97.68329304 -170.1328125 97.65625 C-169.18042694 97.6416272 -168.22804138 97.62700439 -167.24679565 97.61193848 C-164.20623996 97.56562063 -161.16574416 97.53138272 -158.125 97.5 C-141.64776872 97.32691984 -125.70749557 96.75490893 -109.5625 93.125 C-108.77012939 92.9506543 -107.97775879 92.77630859 -107.16137695 92.59667969 C-105.54534123 92.23924228 -103.93000293 91.87863498 -102.31542969 91.51464844 C-100.14389683 91.03198382 -97.96841979 90.57856673 -95.7890625 90.1328125 C-63.12807015 83.24393082 -19.90469574 66.73268167 0.58984375 38.8359375 C5.80334604 30.76634264 7.21020169 23.63118848 6 14 C4.68567071 10.56516852 3.14993013 7.50960124 1.3125 4.328125 C0 2 0 2 0 0 Z " fill="#4652CA" transform="translate(454,275)"/>
<path d="M0 0 C0.99 0.495 0.99 0.495 2 1 C5.75603944 12.26811832 2.47282792 24.98185318 -2.0625 35.453125 C-8.92349062 49.07981471 -21.17908673 58.26432099 -35 64 C-37.65380787 64.75720061 -40.30764532 65.38493622 -43 66 C-41.58764214 85.67560605 -36.17737182 101.8620239 -21.55859375 115.83984375 C-1.18071971 133.04436946 24.24059942 136 50 136 C50 172.63 50 209.26 50 247 C31.62224368 251.59443908 15.11920458 248.86171696 -1.6875 240 C-8.22156337 236.05490513 -14.54052869 231.91894263 -18 225 C-13.05 223.02 -8.1 221.04 -3 219 C-3 218.34 -3 217.68 -3 217 C-4.68006144 215.49457477 -4.68006144 215.49457477 -6.875 213.9375 C-12.19686375 209.91263135 -17.11536455 205.54099276 -22 201 C-22.59425781 200.45988281 -23.18851563 199.91976562 -23.80078125 199.36328125 C-43.73175678 180.47880086 -57.52714433 154.4684491 -67 129 C-67.43054688 127.87980469 -67.86109375 126.75960937 -68.3046875 125.60546875 C-72.29700096 114.55841504 -74.3608151 103.14683855 -76.50683594 91.62451172 C-76.98518464 89.0788441 -77.48705631 86.53889911 -78 84 C-79.25683594 84.15855469 -80.51367188 84.31710938 -81.80859375 84.48046875 C-105.94340633 87.13487381 -128.52940453 84.02410252 -147.9375 68.5625 C-152.81966544 64.30170107 -157.78015993 59.92835642 -162 55 C-162 54.34 -162 53.68 -162 53 C-161.34741211 52.89042969 -160.69482422 52.78085938 -160.02246094 52.66796875 C-144.77404223 50.04022024 -131.16213793 46.16521031 -117 40 C-100.29583438 32.91158929 -86.33144304 35.5820294 -70 42 C-69.74347656 41.28585938 -69.48695313 40.57171875 -69.22265625 39.8359375 C-64.25784237 28.32010721 -54.94691127 20.37563837 -43.8203125 15.1015625 C-39.46235164 13.39942266 -34.96846901 12.36619802 -30.43359375 11.23828125 C-24.94588995 9.783663 -19.64020598 7.82468212 -14.3125 5.875 C-13.35569336 5.52590576 -12.39888672 5.17681152 -11.41308594 4.81713867 C-6.52218339 3.04861876 -6.52218339 3.04861876 -1.83276367 0.82470703 C-1.22795166 0.55255371 -0.62313965 0.28040039 0 0 Z " fill="#A5D3FC" transform="translate(211,131)"/>
<path d="M0 0 C6.57425077 5.40821998 12.53244241 11.39822295 18.53491211 17.42138672 C19.68842433 18.57518141 20.84215758 19.72875517 21.99609375 20.88212585 C25.11145877 23.99720522 28.22374164 27.11534729 31.33546138 30.23406744 C34.59412073 33.49899898 37.85563233 36.76107878 41.11683655 40.02346802 C47.28453275 46.19426616 53.44967645 52.36760789 59.61389691 58.54187787 C66.63491729 65.57409475 73.65879415 72.6034556 80.68290699 79.63258338 C95.12510842 94.08522346 109.56373649 108.54142889 124 123 C121.75214117 125.24785883 121.06380348 125.36379828 118.03125 125.859375 C116.73997192 126.07436646 116.73997192 126.07436646 115.42260742 126.29370117 C114.45814697 126.44427979 113.49368652 126.5948584 112.5 126.75 C111.48204346 126.91411377 110.46408691 127.07822754 109.4152832 127.24731445 C98.35547961 128.99903976 87.27062088 130.59135757 76.1875 132.1875 C75.27226562 132.31983032 74.35703125 132.45216064 73.4140625 132.58850098 C41.30084243 137.21656578 7.97601158 139.37541108 -19.6875 118.6875 C-21.14414967 117.48108852 -22.58155849 116.25111175 -24 115 C-24.76183594 114.33226562 -25.52367187 113.66453125 -26.30859375 112.9765625 C-36.82897251 103.14808049 -43.09846267 90.25229918 -45 76 C-45.06388388 74.04259807 -45.08638169 72.08329853 -45.0625 70.125 C-45.05347656 69.15820312 -45.04445312 68.19140625 -45.03515625 67.1953125 C-45.02355469 66.47085938 -45.01195312 65.74640625 -45 65 C-43.90042969 64.5875 -42.80085937 64.175 -41.66796875 63.75 C-25.66946194 57.57650548 -11.27800791 48.85886376 -3.99609375 32.53125 C-3.66738281 31.6959375 -3.33867187 30.860625 -3 30 C-2.68160156 29.2059375 -2.36320312 28.411875 -2.03515625 27.59375 C0.9566066 18.65982223 0.26006242 9.29482357 0 0 Z " fill="#4652CA" transform="translate(213,132)"/>
<path d="M0 0 C3.56517644 2.4026189 6.92696214 5.03384437 8.875 8.9375 C8.36041391 18.59885376 0.26442522 26.13626641 -6.3515625 32.50390625 C-22.66978636 46.8225731 -43.20722112 55.87249802 -63.125 63.9375 C-63.87604004 64.24171875 -64.62708008 64.5459375 -65.40087891 64.859375 C-78.23843735 69.95235725 -91.62504281 73.13804364 -105.125 75.9375 C-106.67477539 76.25944336 -106.67477539 76.25944336 -108.25585938 76.58789062 C-123.25405966 79.56110213 -137.94429729 80.30311401 -153.1875 80.3125 C-154.06617737 80.31449402 -154.94485474 80.31648804 -155.85015869 80.31854248 C-158.34967757 80.3178979 -160.84829007 80.29995885 -163.34765625 80.2734375 C-164.10469345 80.27102051 -164.86173065 80.26860352 -165.64170837 80.26611328 C-170.89138629 80.17111371 -170.89138629 80.17111371 -173.125 77.9375 C-172.12082031 77.40382813 -171.11664063 76.87015625 -170.08203125 76.3203125 C-155.90265249 68.65347428 -139.7401223 58.76738679 -130.79638672 44.87353516 C-128.17855175 40.82712335 -126.35446052 38.56157654 -121.5625 37.4140625 C-119.75419501 37.1046073 -117.94108149 36.82245662 -116.125 36.5625 C-106.59787528 34.82945374 -97.48801452 32.40598606 -88.3125 29.3125 C-87.67873444 29.09884796 -87.04496887 28.88519592 -86.39199829 28.66506958 C-70.65653866 23.31303356 -55.49739447 16.6848725 -40.3359375 9.90234375 C-39.22130127 9.40597412 -38.10666504 8.90960449 -36.95825195 8.39819336 C-34.8539493 7.45842753 -32.75319512 6.51065371 -30.65698242 5.55297852 C-21.16377679 1.29217299 -10.38899377 -3.53225788 0 0 Z " fill="#E7ECF4" transform="translate(451.125,293.0625)"/>
<path d="M0 0 C2.07322179 2.07322179 2.58580843 3.20371848 3.55859375 5.90234375 C10.17506185 23.65432408 18.85341422 39.4339179 31 54 C31.4758252 54.58120605 31.95165039 55.16241211 32.44189453 55.76123047 C48.98374444 75.93356128 69.38255414 90.61148887 92.8125 101.875 C93.5765918 102.24447754 94.34068359 102.61395508 95.12792969 102.99462891 C100.61252759 105.55970044 106.16423226 107.39988246 112 109 C110.16768116 113.07883593 107.60693172 115.11576482 104 117.625 C103.39494629 118.05014893 102.78989258 118.47529785 102.16650391 118.91333008 C97.05187966 122.42714002 91.76628074 125.61819566 86.375 128.6875 C85.60542969 129.13367676 84.83585937 129.57985352 84.04296875 130.03955078 C82.95048828 130.64452393 82.95048828 130.64452393 81.8359375 131.26171875 C81.19188965 131.62225342 80.5478418 131.98278809 79.88427734 132.35424805 C77.51670493 133.16562781 76.32386456 132.85114097 74 132 C67.09910824 127.48891122 61.0206105 121.59704996 55 116 C54.40574219 115.45988281 53.81148437 114.91976562 53.19921875 114.36328125 C33.26824322 95.47880086 19.47285567 69.4684491 10 44 C9.56945312 42.87980469 9.13890625 41.75960937 8.6953125 40.60546875 C4.16372082 28.06618867 0 13.38272245 0 0 Z " fill="#FDFDFE" transform="translate(134,216)"/>
<path d="M0 0 C-6.30342767 17.01313488 -20.12968478 30.07137933 -36.25 37.8125 C-43.88111553 41.31517707 -51.80955994 43.28056225 -60 45 C-60.78375 45.19335938 -61.5675 45.38671875 -62.375 45.5859375 C-74.57639361 47.51056209 -88.19886982 46.62344561 -100 43 C-100.66 42.34 -101.32 41.68 -102 41 C-100.16776725 39.31129215 -98.33424929 37.62401535 -96.5 35.9375 C-95.95045654 35.43089844 -95.40091309 34.92429687 -94.8347168 34.40234375 C-91.88397242 31.69147972 -88.89700775 29.05895268 -85.8125 26.5 C-80.034624 21.50946559 -75.22422944 15.33634417 -71 9 C-68.73193359 8.59936523 -68.73193359 8.59936523 -65.8984375 8.55859375 C-64.85896973 8.53369873 -63.81950195 8.50880371 -62.74853516 8.4831543 C-61.07863525 8.46055542 -61.07863525 8.46055542 -59.375 8.4375 C-41.34858257 7.94350315 -24.08187978 5.39849805 -6.625 0.875 C-3 0 -3 0 0 0 Z " fill="#6CB0F7" transform="translate(365,364)"/>
<path d="M0 0 C2.40161517 1.13945245 4.6480133 2.3919226 6.92578125 3.76953125 C20.78221763 12.12814282 34.03028085 16.1875838 50.3125 16.125 C51.80426758 16.13080078 51.80426758 16.13080078 53.32617188 16.13671875 C59.29888629 16.1288754 65.0771909 15.77334088 71 15 C72.75778533 19.63487792 73.63623478 24.23853162 74.49536133 29.09594727 C78.76222867 52.82546049 87.0069465 74.64341542 99.1875 95.3984375 C100 97 100 97 100 99 C96.64815129 97.54239039 94.45026012 95.69949078 91.87445068 93.12168884 C91.06119324 92.31262589 90.24793579 91.50356293 89.41003418 90.66998291 C88.52674438 89.78107361 87.64345459 88.89216431 86.73339844 87.97631836 C85.78742944 87.03142263 84.84102756 86.08696011 83.89422607 85.14289856 C81.32796474 82.58147984 78.76798905 80.01386265 76.20923138 77.44495082 C73.53260541 74.75954022 70.85070766 72.07940409 68.16949463 69.39857483 C63.67045117 64.89859527 59.17529597 60.3947612 54.68261719 55.88842773 C49.48153321 50.67159496 44.27521752 45.4600308 39.06588721 40.25143331 C34.05939178 35.24554714 29.0557543 30.2368151 24.05371857 25.22647285 C21.92211487 23.09133035 19.78965654 20.95704674 17.65654755 18.82340813 C14.68435761 15.85003178 11.71644304 12.87242423 8.74902344 9.89428711 C7.85763672 9.00335358 6.96625 8.11242004 6.04785156 7.19448853 C5.24587341 6.38824539 4.44389526 5.58200226 3.61761475 4.75132751 C2.91487301 4.04690993 2.21213127 3.34249235 1.48809433 2.61672878 C0 1 0 1 0 0 Z " fill="#4854CB" transform="translate(62,199)"/>
<path d="M0 0 C2.4375 1.625 2.4375 1.625 4 4 C4.48288863 7.31123632 4.29618989 9.296549 3 12.375 C0.4173429 14.47340889 -1.77490543 14.62470524 -5.0546875 14.44921875 C-7 14 -7 14 -9.5625 11.875 C-11.34196438 8.31607124 -11.2227635 6.74980806 -10 3 C-7.61253564 -0.97910727 -4.27841235 -0.52541906 0 0 Z " fill="#343C45" transform="translate(413,268)"/>
</svg>
