<?xml version="1.0" encoding="UTF-8"?>
<svg version="1.1" xmlns="http://www.w3.org/2000/svg" width="512" height="512">
<path d="M0 0 C0.79829731 -0.00367669 1.59659462 -0.00735338 2.41908276 -0.01114148 C5.08555764 -0.02212616 7.75199348 -0.02601332 10.41848755 -0.02983093 C12.33427553 -0.03609972 14.25006231 -0.04274689 16.16584778 -0.04974365 C22.45203817 -0.07074413 28.73822868 -0.0811451 35.02444458 -0.09111023 C37.19408302 -0.09515985 39.36372134 -0.09927684 41.53335953 -0.10346031 C51.73261463 -0.12250639 61.93186255 -0.13673635 72.13113201 -0.14507228 C83.87464233 -0.1548305 95.61796345 -0.18111554 107.36140716 -0.22157317 C116.45639666 -0.25182255 125.55133221 -0.26654966 134.64637101 -0.26985329 C140.0694565 -0.27219448 145.49233976 -0.2810326 150.91537094 -0.30631447 C156.02574836 -0.32975376 161.13579267 -0.33376523 166.2462101 -0.32355309 C168.11007234 -0.32306138 169.97395188 -0.32927237 171.83776283 -0.34310913 C186.35316636 -0.44473944 200.26299705 0.87717933 213.28225708 7.95967102 C213.94016235 8.30296448 214.59806763 8.64625793 215.27590942 8.99995422 C220.80493099 11.94754519 225.94788423 15.31536271 230.90725708 19.14717102 C231.91788208 19.88967102 232.92850708 20.63217102 233.96975708 21.39717102 C250.62858485 35.89739012 259.96608631 58.16190471 261.65725708 79.77217102 C262.99704418 102.04153428 256.31041084 124.57463042 241.50076294 141.48213196 C227.41205146 156.8042516 211.52174885 164.83063977 191.90725708 171.14717102 C192.80444458 171.34310852 193.70163208 171.53904602 194.62600708 171.74092102 C217.51146661 177.22586587 236.86027502 189.87903977 249.83694458 209.76435852 C262.54878629 230.53502818 265.87911022 254.40214771 260.45071411 278.05097961 C254.87870006 299.5430338 240.50927698 318.92883008 221.40335083 330.27217102 C200.18353325 342.35606091 176.52328932 345.07842614 152.90725708 339.14717102 C140.08971835 335.20546336 128.95805652 328.98860597 118.90725708 320.14717102 C117.76450317 319.14750305 117.76450317 319.14750305 116.59866333 318.12763977 C105.94463747 308.17526553 98.47436869 294.86859917 94.34036255 280.96650696 C94.07158295 280.06446533 93.80280334 279.16242371 93.52587891 278.23304749 C93.3217337 277.54470825 93.1175885 276.85636902 92.90725708 276.14717102 C92.90579052 276.96032965 92.90432396 277.77348827 92.90281296 278.61128807 C92.86563115 298.47093809 92.80646688 318.330419 92.72335434 338.18993187 C92.68368094 347.79417038 92.65122937 357.39832835 92.63626099 367.00263977 C92.62318345 375.38161012 92.59606481 383.76040235 92.55264401 392.13927233 C92.53016531 396.56872918 92.51433814 400.99796748 92.51537323 405.42748642 C92.51612798 409.61205948 92.49785648 413.79615193 92.46608925 417.98060036 C92.45769534 419.50172158 92.45576705 421.0228974 92.46145439 422.54403114 C92.50689697 436.5884601 90.7245 451.27818293 84.28225708 463.95967102 C83.94452271 464.64923889 83.60678833 465.33880676 83.25881958 466.04927063 C72.97954415 486.20046796 55.53213727 500.83349641 34.29788208 508.44013977 C12.55579114 515.25298953 -11.70340263 514.44931614 -32.27975464 504.28877258 C-38.72841696 500.90602757 -44.54808934 496.86124896 -50.09274292 492.14717102 C-50.90871948 491.52068665 -51.72469604 490.89420227 -52.56539917 490.24873352 C-68.58380091 476.92894969 -77.78941208 454.84272971 -79.68307495 434.56245422 C-81.46997434 411.72894013 -75.08619877 389.0942046 -60.16696167 371.47529602 C-59.48246948 370.70701477 -58.79797729 369.93873352 -58.09274292 369.14717102 C-57.43918823 368.39951477 -56.78563354 367.65185852 -56.11227417 366.88154602 C-43.36370007 353.20014943 -26.8986642 345.92334755 -9.09274292 341.14717102 C-10.43852417 340.85326477 -10.43852417 340.85326477 -11.81149292 340.55342102 C-35.22551812 334.94179515 -54.96836059 321.74223963 -67.84274292 301.08467102 C-79.73666153 280.95530692 -83.02023299 256.95231439 -77.34274292 234.33467102 C-70.70340836 211.90320497 -57.47149751 193.00294969 -37.09274292 181.14717102 C-28.19355541 176.41286435 -18.99070147 173.11551505 -9.09274292 171.14717102 C-10.13430542 170.87904602 -11.17586792 170.61092102 -12.24899292 170.33467102 C-27.14020606 166.33297491 -40.61489493 160.70600903 -52.09274292 150.14717102 C-52.92161011 149.40982727 -53.75047729 148.67248352 -54.60446167 147.91279602 C-70.67150564 132.85455573 -80.28854518 111.24038189 -81.21383667 89.27217102 C-81.71716424 64.63872767 -73.62158774 42.50951262 -56.64498901 24.68769836 C-41.51432655 9.6712655 -21.50847668 -0.0053722 0 0 Z M91.90725708 171.14717102 C91.90725708 193.91717102 91.90725708 216.68717102 91.90725708 240.14717102 C92.23725708 240.14717102 92.56725708 240.14717102 92.90725708 240.14717102 C93.17538208 239.09400696 93.44350708 238.0408429 93.71975708 236.95576477 C97.66030272 222.18173653 103.5720341 209.62621314 113.90725708 198.14717102 C114.49764771 197.4639679 115.08803833 196.78076477 115.69631958 196.07685852 C127.94425001 182.78655103 144.76532962 176.28806848 161.90725708 172.14717102 C161.90725708 171.81717102 161.90725708 171.48717102 161.90725708 171.14717102 C138.80725708 171.14717102 115.70725708 171.14717102 91.90725708 171.14717102 Z " fill="#B558FF" transform="translate(165.09274291992188,-0.1471710205078125)"/>
<path d="M0 0 C0.79829731 -0.00367669 1.59659462 -0.00735338 2.41908276 -0.01114148 C5.08555764 -0.02212616 7.75199348 -0.02601332 10.41848755 -0.02983093 C12.33427553 -0.03609972 14.25006231 -0.04274689 16.16584778 -0.04974365 C22.45203817 -0.07074413 28.73822868 -0.0811451 35.02444458 -0.09111023 C37.19408302 -0.09515985 39.36372134 -0.09927684 41.53335953 -0.10346031 C51.73261463 -0.12250639 61.93186255 -0.13673635 72.13113201 -0.14507228 C83.87464233 -0.1548305 95.61796345 -0.18111554 107.36140716 -0.22157317 C116.45639666 -0.25182255 125.55133221 -0.26654966 134.64637101 -0.26985329 C140.0694565 -0.27219448 145.49233976 -0.2810326 150.91537094 -0.30631447 C156.02574836 -0.32975376 161.13579267 -0.33376523 166.2462101 -0.32355309 C168.11007234 -0.32306138 169.97395188 -0.32927237 171.83776283 -0.34310913 C186.35316636 -0.44473944 200.26299705 0.87717933 213.28225708 7.95967102 C213.94016235 8.30296448 214.59806763 8.64625793 215.27590942 8.99995422 C220.80493099 11.94754519 225.94788423 15.31536271 230.90725708 19.14717102 C231.91788208 19.88967102 232.92850708 20.63217102 233.96975708 21.39717102 C250.62858485 35.89739012 259.96608631 58.16190471 261.65725708 79.77217102 C262.99704418 102.04153428 256.31041084 124.57463042 241.50076294 141.48213196 C225.6189251 158.75435873 205.32570017 170.26266053 181.5314064 171.42628288 C176.63755615 171.57690447 171.74478695 171.56492605 166.84915161 171.55122375 C164.98291621 171.55694028 163.11668429 171.56390945 161.25045776 171.57202148 C156.22552018 171.58982659 151.20075843 171.58880851 146.17579889 171.5830791 C141.96151939 171.57996875 137.74727276 171.5861001 133.53299797 171.59211785 C123.58138804 171.60612002 113.62986403 171.60463786 103.67825317 171.59321594 C93.45407729 171.58173961 83.23016389 171.59581222 73.00602257 171.62261242 C64.18767437 171.64485159 55.36940807 171.65138834 46.55103385 171.64553601 C41.30189398 171.64218475 36.05292226 171.6444585 30.8038063 171.66178703 C25.86399227 171.67738577 20.92456362 171.67315902 15.9847641 171.65448189 C14.18582858 171.65083146 12.38686366 171.65379908 10.58795547 171.66436768 C-14.93370928 171.80270663 -37.6814197 164.59096144 -56.34274292 146.45967102 C-72.22998015 130.37031269 -80.82096008 108.50001344 -81.28024292 86.02217102 C-81.00169854 61.84451888 -72.24899242 40.17389867 -55.09274292 23.14717102 C-39.98242236 9.0842345 -20.86249573 -0.00521085 0 0 Z " fill="#FE4D12" transform="translate(165.09274291992188,-0.1471710205078125)"/>
<path d="M0 0 C15.675 -0.0825 31.35 -0.165 47.5 -0.25 C52.41841797 -0.28641602 57.33683594 -0.32283203 62.40429688 -0.36035156 C68.48925781 -0.37841797 68.48925781 -0.37841797 71.35314941 -0.3817749 C73.3199833 -0.38784926 75.28680391 -0.40177338 77.25354004 -0.42230225 C92.76496892 -0.57587769 107.42112154 0.22157486 121.375 7.8125 C122.03290527 8.15579346 122.69081055 8.49908691 123.36865234 8.8527832 C128.89767391 11.80037417 134.04062715 15.16819169 139 19 C140.010625 19.7425 141.02125 20.485 142.0625 21.25 C158.72132777 35.7502191 168.05882923 58.01473369 169.75 79.625 C171.0897871 101.89436326 164.40315376 124.4274594 149.59350586 141.33496094 C133.7485745 158.56705022 113.43305431 170.16150911 89.67146492 171.26769066 C84.8551076 171.40213558 80.04049625 171.37218457 75.22290039 171.34057617 C73.388199 171.33972785 71.55349659 171.34020904 69.71879578 171.34190369 C64.78586556 171.34275705 59.85315854 171.32523916 54.92027974 171.30418181 C49.7473563 171.28530403 44.57442657 171.28365589 39.401474 171.28010559 C29.62711774 171.27081751 19.85286332 171.24624798 10.07855171 171.21605712 C-1.05820832 171.18241178 -12.19497345 171.16600173 -23.33177173 171.15097082 C-46.2212374 171.11969522 -69.11061297 171.06699833 -92 171 C-92 170.67 -92 170.34 -92 170 C-61.64 170 -31.28 170 0 170 C0 113.9 0 57.8 0 0 Z " fill="#FE7261" transform="translate(257,0)"/>
<path d="M0 0 C2.13090209 0.00560813 4.26180809 0.00987246 6.39271545 0.01286316 C11.95094838 0.02421616 17.50893916 0.05359921 23.06707764 0.0869751 C28.75887783 0.11788385 34.45071786 0.13141259 40.14257812 0.14648438 C51.2735428 0.17847965 62.40432925 0.22955793 73.53515625 0.29296875 C73.62840132 12.49887514 73.69919527 24.70469489 73.74240494 36.91088676 C73.76315777 42.58053162 73.79124701 48.24993034 73.83691406 53.91943359 C73.88081514 59.40488176 73.9043855 64.89009524 73.91466522 70.37570572 C73.92197801 72.45418103 73.93625445 74.53264551 73.95807648 76.61101913 C74.11839884 92.53367312 73.27375094 108.6103093 65.91015625 123.10546875 C65.40355469 124.13982056 65.40355469 124.13982056 64.88671875 125.19506836 C54.60744332 145.34626569 37.16003644 159.97929413 15.92578125 167.5859375 C-5.81630969 174.39878726 -30.07550346 173.59511387 -50.65185547 163.43457031 C-57.1005178 160.0518253 -62.92019017 156.00704669 -68.46484375 151.29296875 C-69.28082031 150.66648437 -70.09679687 150.04 -70.9375 149.39453125 C-86.95590174 136.07474742 -96.16151291 113.98852744 -98.05517578 93.70825195 C-99.84207517 70.87473786 -93.4582996 48.24000233 -78.5390625 30.62109375 C-77.85457031 29.8528125 -77.17007813 29.08453125 -76.46484375 28.29296875 C-75.81128906 27.5453125 -75.15773438 26.79765625 -74.484375 26.02734375 C-54.30588737 4.37238142 -28.30018197 -0.22111354 0 0 Z " fill="#00CE7F" transform="translate(183.46484375,340.70703125)"/>
<path d="M0 0 C17.28637486 14.44666735 27.73160596 33.87865191 31.19921875 56.109375 C32.79407032 81.22828715 27.36376862 104.42003739 10.47436523 123.81469727 C-5.93188722 141.91449836 -26.47881753 151.63878364 -50.8828125 153.26953125 C-73.82491553 153.87258082 -95.29415327 146.22709571 -112.55078125 131.046875 C-113.31261719 130.38042969 -114.07445312 129.71398437 -114.859375 129.02734375 C-129.3140825 115.52459272 -139.28648357 95.04390047 -140.1171875 75.27734375 C-140.1448866 72.59168476 -140.14874848 69.91866141 -140.11328125 67.234375 C-140.10868896 66.53410187 -140.10409668 65.83382874 -140.09936523 65.11233521 C-139.90506227 43.53947914 -133.16492754 25.22582471 -118.55078125 9.046875 C-117.88691406 8.29019531 -117.22304688 7.53351563 -116.5390625 6.75390625 C-107.86256044 -2.56411168 -96.43550921 -9.50044455 -84.55078125 -13.953125 C-83.57367188 -14.345 -82.5965625 -14.736875 -81.58984375 -15.140625 C-53.95908309 -24.41528592 -22.66516474 -17.48165172 0 0 Z " fill="#00BCFF" transform="translate(396.55078125,188.953125)"/>
</svg>
