<?xml version="1.0" encoding="UTF-8"?>
<svg version="1.1" xmlns="http://www.w3.org/2000/svg" width="512" height="512">
<path d="M0 0 C1.17175781 0.5259375 1.17175781 0.5259375 2.3671875 1.0625 C14.71738437 7.21623131 24.55386121 18.32827201 29.15494347 31.31540203 C32.05453345 40.52689624 32.29725729 49.7182703 32.29052734 59.30541992 C32.29652632 60.709639 32.30333496 62.1138548 32.31088257 63.51806641 C32.32841217 67.30144449 32.33323243 71.08473188 32.33451414 74.86814666 C32.33594391 77.24111523 32.34022904 79.61406135 32.34550858 81.98702431 C32.36396683 90.29190132 32.37218462 98.59671449 32.37060547 106.90161133 C32.36940572 114.60024847 32.39048615 122.29860453 32.4220928 129.99717063 C32.448386 136.64218669 32.45896732 143.28711169 32.45769465 149.93217927 C32.45718876 153.88526314 32.46266199 157.83809688 32.48405075 161.79112816 C32.70845713 206.38132734 32.70845713 206.38132734 17.0234375 223.09375 C4.79466896 234.6142887 -9.4499592 239.49408926 -26.078125 239.21484375 C-39.95867281 238.45445517 -52.03185352 232.57659899 -62 223 C-74.20544618 208.91350432 -77.30307151 194.80289489 -77.29052734 176.62451172 C-77.29652421 175.200736 -77.30333239 173.77696351 -77.31088257 172.35319519 C-77.32843555 168.5119088 -77.33323349 164.67071172 -77.33451414 160.8293891 C-77.3359428 158.42074646 -77.34022592 156.01212601 -77.34550858 153.60348892 C-77.363976 145.17542346 -77.37218364 136.74742096 -77.37060547 128.31933594 C-77.36940612 120.50427371 -77.39047618 112.68948855 -77.4220928 104.87449634 C-77.44838392 98.13183689 -77.45896737 91.38926719 -77.45769465 84.64655697 C-77.45718862 80.63421491 -77.46267004 76.62211924 -77.48405075 72.60982895 C-77.50365034 68.82900057 -77.50341237 65.04864807 -77.48901749 61.26780128 C-77.48598422 59.24799368 -77.50245382 57.22818488 -77.51989746 55.20845032 C-77.40808969 38.62284849 -73.28984104 23.44480029 -61.6875 11.125 C-45.5606539 -3.99050151 -20.39616075 -9.71854682 0 0 Z " fill="#4BAF4F" transform="translate(346,4)"/>
<path d="M0 0 C1.33820183 -0.00299801 2.6764028 -0.00640201 4.01460266 -0.01017761 C7.62646946 -0.01895785 11.23831253 -0.02135323 14.85018897 -0.0219934 C17.11424295 -0.02270746 19.37829102 -0.02484852 21.64234352 -0.02749062 C29.56234745 -0.03672525 37.48233462 -0.04082799 45.40234375 -0.04003906 C52.74984532 -0.03943923 60.09727325 -0.04997742 67.44475621 -0.06578273 C73.78141326 -0.07892103 80.11804644 -0.08422031 86.45471698 -0.08358365 C90.22660437 -0.08333045 93.99842626 -0.08608217 97.77029991 -0.0967617 C101.32364201 -0.10654896 104.87685744 -0.10645034 108.43020439 -0.09924507 C110.33111064 -0.09772568 112.23201717 -0.10597163 114.13290405 -0.11468506 C131.402036 -0.05263635 146.32704338 2.40160035 159.5324707 14.14526367 C160.20922852 14.6944043 160.88598633 15.24354492 161.58325195 15.80932617 C170.32518249 23.51580474 176.70779896 36.5102211 177.5324707 48.14526367 C177.61239258 49.19842773 177.69231445 50.2515918 177.7746582 51.33666992 C178.37869614 67.2370804 173.49461996 80.17091594 163.4699707 92.27026367 C154.04473452 102.36305452 141.30824875 108.68052355 127.48509789 109.27669144 C125.85754539 109.28115343 125.85754539 109.28115343 124.19711304 109.28570557 C122.31756927 109.29427078 122.31756927 109.29427078 120.40005493 109.30300903 C119.02410899 109.30425417 117.64816293 109.30537931 116.2722168 109.30639648 C114.81298702 109.31102948 113.35375844 109.31605478 111.89453125 109.32144165 C107.93966193 109.33452336 103.98480956 109.3410026 100.02992201 109.34545231 C97.55433522 109.34839054 95.07875298 109.35249679 92.60316849 109.35695648 C84.84400689 109.37062174 77.08485579 109.38029253 69.325683 109.38415837 C60.39453643 109.38863357 51.46354333 109.40616052 42.5324434 109.43515897 C35.61244377 109.45684084 28.69248711 109.46686615 21.7724539 109.46819949 C17.64731853 109.46924309 13.5223276 109.47505506 9.39722824 109.4930191 C5.51148244 109.50961223 1.62598792 109.5116014 -2.25978088 109.5028801 C-3.67702792 109.50211563 -5.0942891 109.50637344 -6.51150131 109.51633835 C-23.89426552 109.63128343 -37.44311209 105.61869829 -50.18237305 93.48510742 C-61.82797931 81.56080289 -65.7593973 68.58471414 -65.78442383 52.28271484 C-65.57679444 37.35006063 -59.25772489 25.36221005 -49.15112305 14.53979492 C-34.97667273 1.89214129 -18.27954068 -0.00670202 0 0 Z " fill="#00BCD3" transform="translate(65.467529296875,133.854736328125)"/>
<path d="M0 0 C1.36982406 -0.00271773 2.73964666 -0.006283 4.10946655 -0.01062012 C7.79343282 -0.01965445 11.47728572 -0.01623706 15.16125369 -0.00986195 C19.04020894 -0.00475408 22.91915528 -0.00950667 26.79811096 -0.01263428 C33.3099235 -0.01626053 39.82169049 -0.01151065 46.33349609 -0.00195312 C53.83048038 0.00892425 61.32735578 0.00540563 68.82433742 -0.00560594 C75.29352823 -0.01472269 81.76268652 -0.01594262 88.23188168 -0.0107286 C92.08137324 -0.00763231 95.93081388 -0.00713426 99.78030205 -0.01380157 C103.40263639 -0.01963853 107.02483233 -0.0154639 110.64715195 -0.00401306 C112.58757596 -0.00016708 114.52801187 -0.00599786 116.46842957 -0.01226807 C134.60624131 0.07391339 150.04349704 3.88293421 163.58813477 16.50878906 C175.33436099 28.88039307 178.41124513 43.52014879 178.17407227 59.90332031 C177.65886146 74.48480625 170.7241796 86.362008 160.27954102 96.25878906 C150.12237719 104.79814519 137.84608482 109.36267678 124.60324097 109.39923096 C122.73631844 109.40779617 122.73631844 109.40779617 120.8316803 109.41653442 C119.46517954 109.41777956 118.09867868 109.4189047 116.73217773 109.41992188 C115.28280004 109.42455493 113.83342355 109.42958024 112.38404846 109.43496704 C108.4560378 109.44804821 104.52804419 109.45452789 100.60001516 109.4589777 C98.14117933 109.46191603 95.68234807 109.4660223 93.22351456 109.47048187 C85.51667869 109.48414701 77.80985339 109.49381785 70.10300624 109.49768376 C61.23241977 109.50215889 52.36198781 109.51968555 43.49144828 109.54868436 C36.61815738 109.57036708 29.74490973 109.58039159 22.87158501 109.58172488 C18.7743949 109.58276842 14.67735022 109.58857914 10.58019638 109.60654449 C6.7207149 109.62313911 2.86148639 109.62512609 -0.99801826 109.61640549 C-2.40559001 109.6156411 -3.813176 109.61989779 -5.22071266 109.62986374 C-22.68545035 109.74615573 -37.29186675 105.51564669 -50.09936523 93.25878906 C-60.97253136 81.32947145 -65.49235471 67.73116217 -65.31030273 51.69238281 C-64.32111321 35.59057561 -56.53218958 23.00807541 -44.94311523 12.25878906 C-31.93532933 1.32470816 -16.36489077 -0.05279569 0 0 Z " fill="#FF9800" transform="translate(334.099365234375,268.7412109375)"/>
<path d="M0 0 C10.24513837 9.69690355 17.03400602 22.66646587 17.65486526 36.91457558 C17.65932726 38.52000504 17.65932726 38.52000504 17.66387939 40.15786743 C17.66958954 41.3940683 17.67529968 42.63026917 17.68118286 43.90393066 C17.68242799 45.26098623 17.68355314 46.6180419 17.68457031 47.97509766 C17.68920342 49.41462327 17.69422874 50.85414766 17.69961548 52.29367065 C17.71269609 56.19482267 17.71917622 60.09595751 17.72362614 63.99712801 C17.72656456 66.43921289 17.73067085 68.88129316 17.73513031 71.3233757 C17.74879532 78.97788585 17.75846621 86.63238535 17.7623322 94.28690684 C17.76680726 103.09693324 17.78433364 111.90680405 17.8133328 120.71678317 C17.83501638 127.54336535 17.84504007 134.36990398 17.84637332 141.19652021 C17.8474168 145.26576507 17.85322624 149.33486348 17.87119293 153.40407181 C17.88778905 157.23728899 17.88977383 161.07025145 17.88105392 164.90349197 C17.88028961 166.30138842 17.88454516 167.69929922 17.89451218 169.09716034 C18.01017055 186.34569044 13.95507367 201.04113765 1.80859375 213.71484375 C-11.13309333 226.08134474 -24.8693205 229.55045489 -42.33203125 229.20703125 C-55.6799348 228.62458607 -68.6743326 221.81411658 -77.734375 212.05859375 C-89.30477359 197.7123372 -91.79371785 181.84764805 -91.73535156 163.89086914 C-91.73806936 162.53089716 -91.74163468 161.17092665 -91.74597168 159.81095886 C-91.75500511 156.15385096 -91.751589 152.49685728 -91.74521351 148.83974767 C-91.74010515 144.98881962 -91.74485836 141.13790053 -91.74798584 137.28697205 C-91.75161196 130.82223783 -91.74686257 124.35754949 -91.73730469 117.89282227 C-91.72642737 110.45036929 -91.72994594 103.00802598 -91.7409575 95.56557566 C-91.75007468 89.14309353 -91.75129397 82.72064415 -91.74608016 76.29815763 C-91.7429841 72.47661161 -91.74248517 68.65511689 -91.74915314 64.8335743 C-91.75499073 61.23750441 -91.75081434 57.64157392 -91.73936462 54.04551888 C-91.73551928 52.11940826 -91.74134887 50.19328565 -91.74761963 48.2671814 C-91.65825465 29.59269341 -88.11123855 15.28506034 -75.15625 1.4140625 C-53.93186385 -18.92313066 -22.11969155 -18.77033763 0 0 Z " fill="#E91D62" transform="translate(225.4765625,283.1015625)"/>
<path d="M0 0 C1.90558685 0.00424484 1.90558685 0.00424484 3.84967041 0.00857544 C7.18363491 0.01779266 10.51731089 0.03567577 13.85119629 0.0579834 C17.27056421 0.07865474 20.68996225 0.08762207 24.109375 0.09765625 C30.78653611 0.11957682 37.46356395 0.15294804 44.140625 0.1953125 C44.19175418 7.91419615 44.22653701 15.63303538 44.25048828 23.35205078 C44.26048388 25.97251009 44.27408483 28.59295843 44.29150391 31.21337891 C44.31603751 35.00165533 44.32717288 38.78978302 44.3359375 42.578125 C44.34626007 43.73079865 44.35658264 44.88347229 44.36721802 46.07107544 C44.36952869 63.20438479 41.823901 78.12417434 30.140625 91.1953125 C29.59535156 91.82179688 29.05007812 92.44828125 28.48828125 93.09375 C19.3192438 102.97473624 6.33953592 108.41667224 -6.98046875 109.43359375 C-24.3205215 109.82165147 -37.97459894 104.44760655 -50.53515625 92.67578125 C-61.47983812 80.99532245 -65.32045073 66.98177448 -65.07421875 51.33984375 C-64.5610023 37.43199663 -58.39877255 25.14168094 -48.859375 15.1953125 C-34.4729219 2.55736678 -18.60037806 -0.15910894 0 0 Z " fill="#E91D62" transform="translate(64.859375,268.8046875)"/>
<path d="M0 0 C12.8940861 8.82128161 21.77221241 21.10298783 24.79051208 36.58499146 C25.24915213 39.80654442 25.37027282 42.84100076 25.36352539 46.09326172 C25.36341209 47.92448074 25.36341209 47.92448074 25.36329651 49.79269409 C25.35813522 51.09602692 25.35297394 52.39935974 25.34765625 53.7421875 C25.34578901 55.10124662 25.34436655 56.46030642 25.34336853 57.81936646 C25.33956748 61.38018686 25.32975802 64.94096587 25.31866455 68.50177002 C25.30839835 72.14179932 25.30385979 75.78183537 25.29882812 79.421875 C25.28813339 86.55210017 25.27108622 93.68229737 25.25 100.8125 C17.37350557 100.88245383 9.49708588 100.93553908 1.62035751 100.96793652 C-2.03836401 100.98349698 -5.69687077 101.00455566 -9.35546875 101.03881836 C-12.89572975 101.07175991 -16.43578606 101.08942504 -19.97618866 101.09713173 C-21.96338155 101.10525518 -23.95049374 101.12861689 -25.93756104 101.15238953 C-43.38259788 101.15557639 -57.12083462 95.95667439 -69.75 83.8125 C-79.93246292 72.11513205 -84.21045219 57.76158384 -83.6875 42.4375 C-82.22147021 26.14457799 -74.82653124 13.40791579 -62.53125 2.8203125 C-44.34327431 -10.30977108 -19.20523108 -11.37499912 0 0 Z " fill="#00BCD3" transform="translate(217.75,7.1875)"/>
<path d="M0 0 C7.87649443 -0.06995383 15.75291412 -0.12303908 23.62964249 -0.15543652 C27.28836401 -0.17099698 30.94687077 -0.19205566 34.60546875 -0.22631836 C38.14572975 -0.25925991 41.68578606 -0.27692504 45.22618866 -0.28463173 C47.21338155 -0.29275518 49.20049374 -0.31611689 51.18756104 -0.33988953 C67.48255549 -0.3428663 81.81943082 4.07476212 93.75 15.52734375 C102.23618552 24.85330805 108.36502796 37.30055926 109 50 C109.05027344 50.65742188 109.10054688 51.31484375 109.15234375 51.9921875 C109.82541653 66.69209691 104.46245397 80.52574936 94.75 91.375 C85.60918929 101.10428825 73.01436111 107.68138552 59.55859375 108.23828125 C49.69496799 108.45109598 41.10121257 108.2763039 32 104 C31.21753906 103.649375 30.43507813 103.29875 29.62890625 102.9375 C17.08567433 96.67675339 7.91785693 85.71945646 2.82421875 72.8125 C0.18168028 63.79530712 -0.27204541 55.27070755 -0.1953125 45.8984375 C-0.1924826 44.58082428 -0.18965271 43.26321106 -0.18673706 41.90567017 C-0.17917444 38.43691129 -0.1595913 34.9683253 -0.1373291 31.49963379 C-0.1167099 27.94639422 -0.10770131 24.39312616 -0.09765625 20.83984375 C-0.07633681 13.89315905 -0.04229233 6.94658787 0 0 Z " fill="#FF9800" transform="translate(269,404)"/>
<path d="M0 0 C0.61359375 0.41636719 1.2271875 0.83273438 1.859375 1.26171875 C11.64502441 8.73562071 18.1588553 20.96843884 20.578125 32.8359375 C22.77057176 49.27928818 19.89605054 64.51349078 9.7734375 77.95703125 C0.24877343 89.00866528 -11.50016166 95.92725379 -26 98 C-28.09228997 98.08283851 -30.18683702 98.11786963 -32.28076172 98.11352539 C-33.5015744 98.11344986 -34.72238708 98.11337433 -35.98019409 98.11329651 C-37.28352692 98.10813522 -38.58685974 98.10297394 -39.9296875 98.09765625 C-41.28874662 98.09578901 -42.64780642 98.09436655 -44.00686646 98.09336853 C-47.56768686 98.08956748 -51.12846587 98.07975802 -54.68927002 98.06866455 C-58.32929932 98.05839835 -61.96933537 98.05385979 -65.609375 98.04882812 C-72.73960017 98.03813339 -79.86979737 98.02108622 -87 98 C-87.09323215 89.73235889 -87.16403168 81.46494233 -87.20724869 73.19690323 C-87.2280048 69.35650129 -87.25609877 65.51646253 -87.30175781 61.67626953 C-87.34564916 57.96092987 -87.36922681 54.24593654 -87.37950897 50.53035736 C-87.38682366 49.1223481 -87.40110434 47.71435491 -87.42292023 46.30649567 C-87.67130773 29.59190117 -82.80133925 16.49428079 -71.39453125 4.29296875 C-67.89919998 0.9458897 -64.19850237 -1.61585044 -60 -4 C-59.319375 -4.38929688 -58.63875 -4.77859375 -57.9375 -5.1796875 C-39.31437703 -15.14596815 -16.93405212 -11.69396956 0 0 Z " fill="#4CAE50" transform="translate(491,145)"/>
</svg>
