<?xml version="1.0" encoding="UTF-8"?>
<svg version="1.1" xmlns="http://www.w3.org/2000/svg" width="512" height="512">
<path d="M0 0 C1.67459856 -0.00302307 3.34919573 -0.00691333 5.02379048 -0.01159257 C9.61128246 -0.02186124 14.19869619 -0.01969362 18.78619456 -0.01541197 C23.73926683 -0.01294271 28.69232036 -0.02196139 33.64538574 -0.02944946 C43.3434226 -0.0421928 53.04143177 -0.04399062 62.73947559 -0.0416492 C70.62294216 -0.03986551 78.50640032 -0.04161677 86.38986588 -0.04587364 C88.07346783 -0.04676643 88.07346783 -0.04676643 89.79108194 -0.04767724 C92.07130709 -0.04888901 94.35153224 -0.05010314 96.63175739 -0.05131962 C118.0112488 -0.06219371 139.39072443 -0.06003326 160.77021672 -0.05393478 C180.32347575 -0.04876547 199.87668496 -0.06002168 219.42993413 -0.07903299 C239.51398728 -0.0984105 259.59801687 -0.10666756 279.68207943 -0.10290974 C290.9550402 -0.1009976 302.22795857 -0.10348656 313.50091171 -0.11762428 C323.09744317 -0.1295379 332.69390612 -0.13094313 342.29043852 -0.11883412 C347.18495238 -0.1129454 352.07934092 -0.11184587 356.97384644 -0.12383652 C361.4583347 -0.13469488 365.94259301 -0.13159247 370.42707051 -0.11757483 C372.04542515 -0.1149278 373.66379781 -0.11729465 375.28213476 -0.1253107 C393.94883565 -0.2113209 410.87328405 4.87352597 424.61746216 17.98139954 C439.06211389 32.60660942 442.88972925 49.89385842 442.83909607 69.68229675 C442.84211914 71.35689531 442.8460094 73.03149248 442.85068864 74.70608723 C442.86095731 79.29357922 442.85878969 83.88099295 442.85450804 88.46849132 C442.85203878 93.42156358 442.86105746 98.37461711 442.86854553 103.3276825 C442.88128887 113.02571936 442.88308668 122.72372852 442.88074527 132.42177235 C442.87896158 140.30523891 442.88071284 148.18869707 442.88496971 156.07216263 C442.8855649 157.19456393 442.88616009 158.31696523 442.88677331 159.4733787 C442.88798508 161.75360385 442.88919921 164.033829 442.89041569 166.31405415 C442.90128978 187.69354555 442.89912933 209.07302118 442.89303084 230.45251347 C442.88786153 250.0057725 442.89911775 269.55898171 442.91812906 289.11223088 C442.93750657 309.19628404 442.94576363 329.28031362 442.94200581 349.36437619 C442.94009367 360.63733696 442.94258263 371.91025532 442.95672035 383.18320847 C442.96863397 392.77973992 442.9700392 402.37620287 442.95793018 411.97273527 C442.95204147 416.86724913 442.95094194 421.76163768 442.96293259 426.65614319 C442.97379095 431.14063145 442.97068854 435.62488976 442.9566709 440.10936727 C442.95402386 441.7277219 442.95639072 443.34609456 442.96440677 444.96443151 C443.05041697 463.6311324 437.9655701 480.5555808 424.85769653 494.29975891 C410.23248665 508.74441065 392.94523764 512.57202601 373.15679932 512.52139282 C371.48220076 512.52441589 369.80760358 512.52830615 368.13300884 512.53298539 C363.54551685 512.54325407 358.95810312 512.54108644 354.37060475 512.5368048 C349.41753248 512.53433553 344.46447896 512.54335422 339.51141357 512.55084229 C329.81337671 512.56358562 320.11536755 512.56538344 310.41732372 512.56304202 C302.53385716 512.56125833 294.650399 512.5630096 286.76693344 512.56726646 C285.08333149 512.56815925 285.08333149 512.56815925 283.36571737 512.56907007 C281.08549222 512.57028183 278.80526707 512.57149596 276.52504192 512.57271244 C255.14555052 512.58358653 233.76607489 512.58142608 212.3865826 512.5753276 C192.83332357 512.57015829 173.28011436 512.5814145 153.72686519 512.60042582 C133.64281203 512.61980333 113.55878245 512.62806038 93.47471988 512.62430257 C82.20175911 512.62239043 70.92884075 512.62487938 59.6558876 512.63901711 C50.05935615 512.65093072 40.4628932 512.65233595 30.8663608 512.64022694 C25.97184694 512.63433823 21.07745839 512.63323869 16.18295288 512.64522934 C11.69846462 512.6560877 7.21420631 512.65298529 2.7297288 512.63896766 C1.11137417 512.63632062 -0.50699849 512.63868747 -2.12533544 512.64670352 C-20.79203633 512.73271373 -37.71648473 507.64786685 -51.46066284 494.53999329 C-65.90531458 479.9147834 -69.73292994 462.6275344 -69.68229675 442.83909607 C-69.68531982 441.16449751 -69.68921008 439.48990034 -69.69388932 437.81530559 C-69.704158 433.22781361 -69.70199038 428.64039988 -69.69770873 424.05290151 C-69.69523946 419.09982924 -69.70425815 414.14677571 -69.71174622 409.19371033 C-69.72448955 399.49567347 -69.72628737 389.7976643 -69.72394595 380.09962048 C-69.72216226 372.21615391 -69.72391353 364.33269575 -69.72817039 356.44923019 C-69.72876558 355.32682889 -69.72936077 354.20442759 -69.729974 353.04801413 C-69.73118576 350.76778898 -69.73239989 348.48756382 -69.73361637 346.20733868 C-69.74449046 324.82784727 -69.74233001 303.44837164 -69.73623153 282.06887935 C-69.73106222 262.51562032 -69.74231843 242.96241111 -69.76132975 223.40916194 C-69.78070726 203.32510879 -69.78896432 183.2410792 -69.7852065 163.15701663 C-69.78329436 151.88405587 -69.78578331 140.6111375 -69.79992104 129.33818436 C-69.81183466 119.7416529 -69.81323988 110.14518995 -69.80113087 100.54865755 C-69.79524216 95.65414369 -69.79414263 90.75975515 -69.80613327 85.86524963 C-69.81699163 81.38076137 -69.81388922 76.89650306 -69.79987159 72.41202556 C-69.79722455 70.79367092 -69.79959141 69.17529826 -69.80760745 67.55696131 C-69.89361766 48.89026042 -64.80877078 31.96581202 -51.70089722 18.22163391 C-37.07568733 3.77698217 -19.78843833 -0.05063318 0 0 Z " fill="#0277BD" transform="translate(69.42160034179688,-0.2606964111328125)"/>
<path d="M0 0 C0.98186783 -0.00350464 1.96373566 -0.00700928 2.97535706 -0.01062012 C6.18929317 -0.01935227 9.40300539 -0.01361897 12.61694336 -0.00683594 C14.86795595 -0.00818492 17.11896826 -0.0101274 19.36997986 -0.01263428 C24.0744811 -0.01557392 28.7789061 -0.01132487 33.48339844 -0.00195312 C39.4975875 0.00944722 45.51159814 0.00287078 51.52578068 -0.00909805 C56.16960482 -0.01634238 60.81338701 -0.01401702 65.45721245 -0.00884247 C67.67427021 -0.00751343 69.89133185 -0.0091274 72.10838509 -0.01380157 C75.2116816 -0.01890989 78.31469332 -0.01109651 81.41796875 0 C82.32367615 -0.00404846 83.22938354 -0.00809692 84.16253662 -0.01226807 C94.25936138 0.05424085 102.53898425 2.00061305 110.64428711 8.25878906 C120.02499522 18.15188879 120.7959956 28.21638289 120.77799988 41.2013855 C120.78026543 42.40158077 120.78253099 43.60177605 120.7848652 44.83834088 C120.79008955 48.1572306 120.79085195 51.47606602 120.78967083 54.79495597 C120.78946632 58.3792279 120.79499027 61.96349183 120.79972839 65.54776001 C120.80802439 72.5649913 120.81078275 79.58221419 120.81134077 86.59944998 C120.81181638 92.30429889 120.81387335 98.00914504 120.8170414 103.71399307 C120.82584467 119.89627982 120.83046122 136.07855994 120.82971092 152.2608491 C120.82967097 153.13270347 120.82963101 154.00455784 120.82958984 154.90283203 C120.82954896 155.77575347 120.82950808 156.64867491 120.82946596 157.54804851 C120.82905946 171.69676125 120.83863092 185.84544737 120.85272821 199.99415241 C120.8670965 214.52976888 120.87399816 229.06537238 120.87313443 243.60099614 C120.87280265 251.75853355 120.87554175 259.91604306 120.88631248 268.07357407 C120.89542338 275.01832432 120.89758785 281.96303402 120.89080306 288.90778767 C120.88754099 292.44914566 120.88746986 295.99042586 120.89615631 299.53177643 C120.9054868 303.37529529 120.89923718 307.21870093 120.89152527 311.06222534 C120.89666883 312.17517373 120.90181239 313.28812212 120.90711182 314.43479621 C120.85980086 325.11054184 119.27860486 333.64735675 112.64428711 342.25878906 C103.72810322 350.86751833 93.71196424 352.40996344 81.75854492 352.40405273 C80.28902878 352.40909065 80.28902878 352.40909065 78.78982544 352.41423035 C75.559008 352.4237098 72.32824258 352.42568205 69.09741211 352.42675781 C66.8430784 352.42997283 64.5887449 352.43333708 62.33441162 352.43684387 C57.61022457 352.44282787 52.8860558 352.44468455 48.16186523 352.4440918 C42.12525274 352.4439903 36.08875819 352.45763332 30.05217361 352.47486401 C25.39544136 352.48601469 20.73873733 352.48801005 16.0819931 352.48748207 C13.85738469 352.48865791 11.63277544 352.49305734 9.40818024 352.50081444 C6.28790675 352.51067488 3.16788547 352.50771228 0.04760742 352.50170898 C-0.86078888 352.50732849 -1.76918518 352.512948 -2.70510864 352.51873779 C-14.29846025 352.46241081 -22.73501135 350.36522583 -31.35571289 342.25878906 C-38.94303451 332.82385619 -39.65673022 322.79790233 -39.60968018 311.08241272 C-39.61280016 309.88121416 -39.61592014 308.6800156 -39.61913466 307.44241709 C-39.62570414 304.12991375 -39.62337713 300.81763912 -39.61716223 297.50514996 C-39.612621 293.92429854 -39.61962979 290.34346653 -39.62512207 286.76261902 C-39.63400019 279.75600872 -39.63210104 272.74944135 -39.62629679 265.74282939 C-39.62177372 260.04613905 -39.62117019 254.34946071 -39.62334442 248.65276909 C-39.62365089 247.84091952 -39.62395735 247.02906996 -39.62427311 246.19261889 C-39.62491258 244.543172 -39.62556101 242.89372512 -39.62621829 241.24427824 C-39.63191705 225.78877778 -39.62537101 210.33330107 -39.61461756 194.87780451 C-39.60568415 181.62824124 -39.60723324 168.37871303 -39.61645508 155.12915039 C-39.62716865 139.72920433 -39.63136599 124.32927908 -39.62523055 108.92932981 C-39.62459348 107.28576148 -39.62396474 105.64219314 -39.62334442 103.9986248 C-39.62303587 103.19003839 -39.62272732 102.38145199 -39.62240942 101.54836296 C-39.62068561 95.86177141 -39.62359083 90.17519309 -39.62830353 84.48860359 C-39.63392452 77.55380741 -39.63237042 70.61905647 -39.62174204 63.68426544 C-39.61650143 60.14884853 -39.61440095 56.61350695 -39.62104034 53.07809067 C-39.62813999 49.23940126 -39.61963781 45.40083405 -39.60968018 41.56214905 C-39.61414162 40.45347774 -39.61860306 39.34480643 -39.6231997 38.20253903 C-39.5616804 25.95317855 -37.78511446 17.50066307 -29.35571289 8.25878906 C-20.90271983 0.65564808 -10.9662161 -0.04912818 0 0 Z " fill="#EBEEF0" transform="translate(103.355712890625,63.7412109375)"/>
<path d="M0 0 C0.98186783 -0.00350464 1.96373566 -0.00700928 2.97535706 -0.01062012 C6.18929317 -0.01935227 9.40300539 -0.01361897 12.61694336 -0.00683594 C14.86795595 -0.00818492 17.11896826 -0.0101274 19.36997986 -0.01263428 C24.0744811 -0.01557392 28.7789061 -0.01132487 33.48339844 -0.00195312 C39.4975875 0.00944722 45.51159814 0.00287078 51.52578068 -0.00909805 C56.16960482 -0.01634238 60.81338701 -0.01401702 65.45721245 -0.00884247 C67.67427021 -0.00751343 69.89133185 -0.0091274 72.10838509 -0.01380157 C75.2116816 -0.01890989 78.31469332 -0.01109651 81.41796875 0 C82.32367615 -0.00404846 83.22938354 -0.00809692 84.16253662 -0.01226807 C94.25936138 0.05424085 102.53898425 2.00061305 110.64428711 8.25878906 C118.49180897 16.53495707 120.76237936 25.1009126 120.77799988 36.3420105 C120.78026543 37.01951107 120.78253099 37.69701164 120.7848652 38.39504254 C120.79115317 40.6463547 120.79037921 42.89760586 120.78955078 45.14892578 C120.7925455 46.7708036 120.79594875 48.39268071 120.79972839 50.01455688 C120.80854011 54.40717238 120.8109053 58.79976839 120.81154418 63.19239187 C120.81225621 65.93982869 120.81439341 68.6872606 120.8170414 71.4346962 C120.82628498 81.02824466 120.83037746 90.62177926 120.82958984 100.21533203 C120.8289891 109.1443015 120.83954289 118.07321054 120.85533351 127.00216472 C120.86842645 134.68051749 120.87377301 142.35885055 120.87313443 150.0372144 C120.87287999 154.6177153 120.87570153 159.19816246 120.88631248 163.77865219 C120.89602318 168.0878798 120.89605233 172.39700259 120.88879585 176.70623398 C120.88775375 178.28276727 120.89009056 179.85930719 120.89615631 181.43582916 C120.94049572 193.76356697 120.4361449 204.14485444 112.64428711 214.25878906 C103.72810322 222.86751833 93.71196424 224.40996344 81.75854492 224.40405273 C80.28902878 224.40909065 80.28902878 224.40909065 78.78982544 224.41423035 C75.559008 224.4237098 72.32824258 224.42568205 69.09741211 224.42675781 C66.8430784 224.42997283 64.5887449 224.43333708 62.33441162 224.43684387 C57.61022457 224.44282787 52.8860558 224.44468455 48.16186523 224.4440918 C42.12525274 224.4439903 36.08875819 224.45763332 30.05217361 224.47486401 C25.39544136 224.48601469 20.73873733 224.48801005 16.0819931 224.48748207 C13.85738469 224.48865791 11.63277544 224.49305734 9.40818024 224.50081444 C6.28790675 224.51067488 3.16788547 224.50771228 0.04760742 224.50170898 C-0.86078888 224.50732849 -1.76918518 224.512948 -2.70510864 224.51873779 C-14.29846025 224.46241081 -22.73501135 222.36522583 -31.35571289 214.25878906 C-39.81394349 203.74086957 -39.65080234 192.03080865 -39.61450195 179.1574707 C-39.61721581 177.53691959 -39.62077895 175.91636971 -39.62512207 174.29582214 C-39.63420211 169.91562702 -39.63071979 165.53552662 -39.6243639 161.15532994 C-39.61928026 156.55825763 -39.62400198 151.96119313 -39.62713623 147.36412048 C-39.63076937 139.64483188 -39.62599429 131.92558161 -39.61645508 124.20629883 C-39.60557565 115.30002297 -39.60909503 106.39383873 -39.62010789 97.4875651 C-39.62920398 89.82273931 -39.63045459 82.157941 -39.62523055 74.49311155 C-39.62212311 69.92323426 -39.62166759 65.35339994 -39.62830353 60.78352547 C-39.63411007 56.48492871 -39.63001993 52.18644925 -39.61851501 47.88786507 C-39.61588588 46.31659133 -39.6166034 44.74530761 -39.62104034 43.17403793 C-39.65694563 29.15923893 -39.1306514 18.97589032 -29.35571289 8.25878906 C-20.90271983 0.65564808 -10.9662161 -0.04912818 0 0 Z " fill="#EBEEF0" transform="translate(327.355712890625,63.7412109375)"/>
</svg>
